<svg width="124" height="32" viewBox="0 0 124 32" fill="none" xmlns="http://www.w3.org/2000/svg">
<path d="M26.4582 17.8706H31C29.9243 24.9781 23.6693 30.4063 16.0996 30.4063C7.73307 30.4063 1 23.8065 1 15.6836C1 7.56078 7.73307 1 16.0598 1C23.6295 1 29.9243 6.42826 30.9602 13.5358H26.4582C25.4622 9.59149 21.7968 6.62352 17.4542 6.62352C12.3147 6.62352 8.17131 10.685 8.17131 15.6836C8.17131 20.6823 12.3147 24.7438 17.4542 24.7438C21.7968 24.7438 25.4622 21.8148 26.4582 17.8706ZM17.4542 17.7534V20.5652C20.2032 20.5652 22.4343 18.3782 22.4343 15.6836C22.4343 12.989 20.2032 10.8021 17.4542 10.8021V13.6139C18.6096 13.6139 19.5657 14.5511 19.5657 15.6836C19.5657 16.8552 18.6096 17.7534 17.4542 17.7534Z" fill="#E75423"/>
<path d="M56.6882 13.9922H53.8885C53.8374 13.63 53.733 13.3082 53.5753 13.027C53.4176 12.7415 53.2152 12.4986 52.968 12.2983C52.7209 12.098 52.4354 11.9446 52.1115 11.8381C51.7919 11.7315 51.4446 11.6783 51.0696 11.6783C50.392 11.6783 49.8018 11.8466 49.299 12.1832C48.7962 12.5156 48.4063 13.0014 48.1293 13.6406C47.8523 14.2756 47.7138 15.0469 47.7138 15.9545C47.7138 16.8878 47.8523 17.6719 48.1293 18.3068C48.4105 18.9418 48.8026 19.4212 49.3054 19.745C49.8082 20.0689 50.3899 20.2308 51.0504 20.2308C51.4212 20.2308 51.7642 20.1818 52.0795 20.0838C52.3991 19.9858 52.6825 19.843 52.9297 19.6555C53.1768 19.4638 53.3814 19.2315 53.5433 18.9588C53.7095 18.6861 53.8246 18.375 53.8885 18.0256L56.6882 18.0384C56.6158 18.6392 56.4347 19.2188 56.1449 19.777C55.8594 20.331 55.4737 20.8274 54.9879 21.2663C54.5064 21.701 53.9311 22.0462 53.2621 22.3018C52.5973 22.5533 51.8452 22.679 51.0057 22.679C49.8381 22.679 48.794 22.4148 47.8736 21.8864C46.9574 21.358 46.233 20.593 45.7003 19.5916C45.1719 18.5902 44.9077 17.3778 44.9077 15.9545C44.9077 14.527 45.1761 13.3125 45.7131 12.3111C46.25 11.3097 46.9787 10.5469 47.8991 10.0227C48.8196 9.49432 49.8551 9.23011 51.0057 9.23011C51.7642 9.23011 52.4673 9.33665 53.1151 9.54972C53.767 9.76278 54.3445 10.0739 54.8473 10.483C55.3501 10.8878 55.7592 11.3842 56.0746 11.9723C56.3942 12.5604 56.5987 13.2337 56.6882 13.9922ZM61.4215 22.6854C60.7951 22.6854 60.2369 22.5767 59.7468 22.3594C59.2567 22.1378 58.869 21.8118 58.5835 21.3814C58.3022 20.9467 58.1616 20.4055 58.1616 19.7578C58.1616 19.2124 58.2617 18.7543 58.462 18.3835C58.6623 18.0128 58.935 17.7145 59.2802 17.4886C59.6254 17.2628 60.0174 17.0923 60.4563 16.9773C60.8995 16.8622 61.364 16.7812 61.8498 16.7344C62.4208 16.6747 62.881 16.6193 63.2305 16.5682C63.5799 16.5128 63.8335 16.4318 63.9911 16.3253C64.1488 16.2187 64.2276 16.0611 64.2276 15.8523V15.8139C64.2276 15.4091 64.0998 15.0959 63.8441 14.8743C63.5927 14.6527 63.2347 14.5419 62.7702 14.5419C62.2802 14.5419 61.8903 14.6506 61.6005 14.8679C61.3107 15.081 61.119 15.3494 61.0252 15.6733L58.5067 15.4688C58.6346 14.8722 58.886 14.3565 59.261 13.9219C59.636 13.483 60.1197 13.1463 60.712 12.9119C61.3086 12.6733 61.9989 12.554 62.783 12.554C63.3285 12.554 63.8505 12.6179 64.3491 12.7457C64.8519 12.8736 65.2972 13.0717 65.685 13.3402C66.0771 13.6087 66.386 13.9538 66.6119 14.3757C66.8377 14.7933 66.9506 15.294 66.9506 15.8778V22.5H64.3683V21.1385H64.2915C64.1339 21.4453 63.9229 21.7159 63.6587 21.9503C63.3945 22.1804 63.0771 22.3615 62.7063 22.4936C62.3356 22.6214 61.9073 22.6854 61.4215 22.6854ZM62.2013 20.8061C62.6019 20.8061 62.9556 20.7273 63.2624 20.5696C63.5692 20.4077 63.81 20.1903 63.9847 19.9176C64.1594 19.6449 64.2468 19.3359 64.2468 18.9908V17.9489C64.1616 18.0043 64.0444 18.0554 63.8952 18.1023C63.7504 18.1449 63.5863 18.1854 63.4031 18.2237C63.2198 18.2578 63.0366 18.2898 62.8533 18.3196C62.6701 18.3452 62.5039 18.3686 62.3548 18.3899C62.0352 18.4368 61.756 18.5114 61.5174 18.6136C61.2788 18.7159 61.0934 18.8544 60.9613 19.0291C60.8292 19.1996 60.7631 19.4126 60.7631 19.6683C60.7631 20.0391 60.8974 20.3224 61.1658 20.5185C61.4386 20.7102 61.7837 20.8061 62.2013 20.8061ZM72.6811 22.6598C71.9354 22.6598 71.2599 22.468 70.6548 22.0845C70.054 21.6967 69.5767 21.1278 69.223 20.3778C68.8736 19.6236 68.6989 18.6989 68.6989 17.6037C68.6989 16.4787 68.88 15.5433 69.2422 14.7976C69.6044 14.0476 70.0859 13.4872 70.6868 13.1165C71.2919 12.7415 71.9545 12.554 72.6747 12.554C73.2244 12.554 73.6825 12.6477 74.049 12.8352C74.4197 13.0185 74.718 13.2486 74.9439 13.5256C75.174 13.7983 75.3487 14.0668 75.468 14.331H75.5511V9.40909H78.2678V22.5H75.5831V20.9276H75.468C75.3402 21.2003 75.1591 21.4709 74.9247 21.7393C74.6946 22.0036 74.3942 22.223 74.0234 22.3977C73.657 22.5724 73.2095 22.6598 72.6811 22.6598ZM73.544 20.4929C73.983 20.4929 74.3537 20.3736 74.6562 20.1349C74.9631 19.892 75.1974 19.5533 75.3594 19.1186C75.5256 18.6839 75.6087 18.1747 75.6087 17.5909C75.6087 17.0071 75.5277 16.5 75.3658 16.0696C75.2038 15.6392 74.9695 15.3068 74.6626 15.0724C74.3558 14.8381 73.983 14.7209 73.544 14.7209C73.0966 14.7209 72.7195 14.8423 72.4126 15.0852C72.1058 15.3281 71.8736 15.6648 71.7159 16.0952C71.5582 16.5256 71.4794 17.0241 71.4794 17.5909C71.4794 18.1619 71.5582 18.6669 71.7159 19.1058C71.8778 19.5405 72.1101 19.8814 72.4126 20.1286C72.7195 20.3714 73.0966 20.4929 73.544 20.4929ZM83.3063 22.6854C82.6799 22.6854 82.1216 22.5767 81.6316 22.3594C81.1415 22.1378 80.7537 21.8118 80.4682 21.3814C80.187 20.9467 80.0463 20.4055 80.0463 19.7578C80.0463 19.2124 80.1465 18.7543 80.3468 18.3835C80.5471 18.0128 80.8198 17.7145 81.165 17.4886C81.5101 17.2628 81.9022 17.0923 82.3411 16.9773C82.7843 16.8622 83.2488 16.7812 83.7346 16.7344C84.3056 16.6747 84.7658 16.6193 85.1152 16.5682C85.4647 16.5128 85.7182 16.4318 85.8759 16.3253C86.0336 16.2187 86.1124 16.0611 86.1124 15.8523V15.8139C86.1124 15.4091 85.9846 15.0959 85.7289 14.8743C85.4775 14.6527 85.1195 14.5419 84.655 14.5419C84.165 14.5419 83.775 14.6506 83.4853 14.8679C83.1955 15.081 83.0037 15.3494 82.91 15.6733L80.3915 15.4688C80.5194 14.8722 80.7708 14.3565 81.1458 13.9219C81.5208 13.483 82.0044 13.1463 82.5968 12.9119C83.1934 12.6733 83.8837 12.554 84.6678 12.554C85.2132 12.554 85.7353 12.6179 86.2338 12.7457C86.7367 12.8736 87.182 13.0717 87.5698 13.3402C87.9618 13.6087 88.2708 13.9538 88.4966 14.3757C88.7225 14.7933 88.8354 15.294 88.8354 15.8778V22.5H86.253V21.1385H86.1763C86.0186 21.4453 85.8077 21.7159 85.5435 21.9503C85.2793 22.1804 84.9618 22.3615 84.5911 22.4936C84.2203 22.6214 83.7921 22.6854 83.3063 22.6854ZM84.0861 20.8061C84.4867 20.8061 84.8404 20.7273 85.1472 20.5696C85.454 20.4077 85.6948 20.1903 85.8695 19.9176C86.0442 19.6449 86.1316 19.3359 86.1316 18.9908V17.9489C86.0463 18.0043 85.9292 18.0554 85.78 18.1023C85.6351 18.1449 85.4711 18.1854 85.2878 18.2237C85.1046 18.2578 84.9213 18.2898 84.7381 18.3196C84.5549 18.3452 84.3887 18.3686 84.2395 18.3899C83.9199 18.4368 83.6408 18.5114 83.4022 18.6136C83.1635 18.7159 82.9782 18.8544 82.8461 19.0291C82.714 19.1996 82.6479 19.4126 82.6479 19.6683C82.6479 20.0391 82.7821 20.3224 83.0506 20.5185C83.3233 20.7102 83.6685 20.8061 84.0861 20.8061ZM93.671 16.8239V22.5H90.948V12.6818H93.5431V14.4141H93.6582C93.8755 13.843 94.2399 13.3913 94.7512 13.0589C95.2626 12.7223 95.8826 12.554 96.6113 12.554C97.2931 12.554 97.8876 12.7031 98.3947 13.0014C98.9018 13.2997 99.296 13.7259 99.5772 14.2798C99.8585 14.8295 99.9991 15.4858 99.9991 16.2486V22.5H97.2761V16.7344C97.2804 16.1335 97.127 15.6648 96.8159 15.3281C96.5048 14.9872 96.0765 14.8168 95.5311 14.8168C95.1646 14.8168 94.8407 14.8956 94.5595 15.0533C94.2825 15.2109 94.0652 15.4411 93.9075 15.7436C93.7541 16.0419 93.6752 16.402 93.671 16.8239ZM104.945 22.6854C104.319 22.6854 103.76 22.5767 103.27 22.3594C102.78 22.1378 102.392 21.8118 102.107 21.3814C101.826 20.9467 101.685 20.4055 101.685 19.7578C101.685 19.2124 101.785 18.7543 101.985 18.3835C102.186 18.0128 102.458 17.7145 102.804 17.4886C103.149 17.2628 103.541 17.0923 103.98 16.9773C104.423 16.8622 104.887 16.7812 105.373 16.7344C105.944 16.6747 106.404 16.6193 106.754 16.5682C107.103 16.5128 107.357 16.4318 107.515 16.3253C107.672 16.2187 107.751 16.0611 107.751 15.8523V15.8139C107.751 15.4091 107.623 15.0959 107.368 14.8743C107.116 14.6527 106.758 14.5419 106.294 14.5419C105.804 14.5419 105.414 14.6506 105.124 14.8679C104.834 15.081 104.642 15.3494 104.549 15.6733L102.03 15.4688C102.158 14.8722 102.409 14.3565 102.784 13.9219C103.159 13.483 103.643 13.1463 104.235 12.9119C104.832 12.6733 105.522 12.554 106.306 12.554C106.852 12.554 107.374 12.6179 107.873 12.7457C108.375 12.8736 108.821 13.0717 109.208 13.3402C109.6 13.6087 109.909 13.9538 110.135 14.3757C110.361 14.7933 110.474 15.294 110.474 15.8778V22.5H107.892V21.1385H107.815C107.657 21.4453 107.446 21.7159 107.182 21.9503C106.918 22.1804 106.6 22.3615 106.23 22.4936C105.859 22.6214 105.431 22.6854 104.945 22.6854ZM105.725 20.8061C106.125 20.8061 106.479 20.7273 106.786 20.5696C107.093 20.4077 107.333 20.1903 107.508 19.9176C107.683 19.6449 107.77 19.3359 107.77 18.9908V17.9489C107.685 18.0043 107.568 18.0554 107.419 18.1023C107.274 18.1449 107.11 18.1854 106.926 18.2237C106.743 18.2578 106.56 18.2898 106.377 18.3196C106.194 18.3452 106.027 18.3686 105.878 18.3899C105.559 18.4368 105.279 18.5114 105.041 18.6136C104.802 18.7159 104.617 18.8544 104.485 19.0291C104.353 19.1996 104.287 19.4126 104.287 19.6683C104.287 20.0391 104.421 20.3224 104.689 20.5185C104.962 20.7102 105.307 20.8061 105.725 20.8061Z" fill="#1B212D"/>
</svg>
